# xmcd
#
# Track frame offsets:
#	150
#	14137
#	27717
#	42540
#	73482
#	85972
#	102497
#	115122
#	132002
#	145810
#	166160
#	179577
#	198435
#	215200
#
# Disc length: 3066 seconds
#
# Revision: 2
# Processed by: cddbd v1.5.2PL0 Copyright (c) Steve Scherf et al.
# Submitted via: EasyCDDAExtractor 11.1.0.1
#
DISCID=df0bf80e
DTITLE=Various Artist - Mr. Music Country 6-98
DYEAR=1900
DGENRE=Country
TTITLE0=George Jones and Waylon Jennings and Willie Nelson - I Finally Passed the 
TTITLE0=Bar
TTITLE1=Marty Stuart and Travis Tritt - Honky Tonkin's What I Do Best
TTITLE2=Mark Chesnutt - It's Not Over (If I'm Not over You
TTITLE3=Joe Ely - Behind the Bamboo Shade
TTITLE4=Josh Logan - Drinking Overtime
TTITLE5=Trisha Yearwood - Hello I'm Gone
TTITLE6=George Strait - Won't You Come Home 
TTITLE7=Chely Wright - Emma Jean's Guitar
TTITLE8=Vince Gill and Alison Krauss - High Lonesome Sound
TTITLE9=Matraca Berg - The Resurrection
TTITLE10=W.C.Taylor Jr. - Hobo on the Highway to Heaven
TTITLE11=David Lee Murphy - Genuine Rednecks
TTITLE12=Lee Ann Womack - Never Again, Again
TTITLE13=Tracy Byrd - Driving Me out of My Mind
EXTD=\nURL: http://www.mrmusic.se "Mr. Music"
EXTT0=
EXTT1=
EXTT2=
EXTT3=
EXTT4=
EXTT5=
EXTT6=
EXTT7=
EXTT8=
EXTT9=
EXTT10=
EXTT11=
EXTT12=
EXTT13=
PLAYORDER=
